<svg
   width="142.33426mm"
   height="38.253735mm"
   viewBox="0 0 142.33426 38.253735"
   version="1.1"
   id="svg8505"
   xml:space="preserve"
   xmlns:inkscape="http://www.inkscape.org/namespaces/inkscape"
   xmlns:sodipodi="http://sodipodi.sourceforge.net/DTD/sodipodi-0.dtd"
   xmlns="http://www.w3.org/2000/svg"
   xmlns:svg="http://www.w3.org/2000/svg"><sodipodi:namedview
     id="namedview8507"
     pagecolor="#ffffff"
     bordercolor="#000000"
     borderopacity="0.25"
     inkscape:showpageshadow="2"
     inkscape:pageopacity="0.0"
     inkscape:pagecheckerboard="0"
     inkscape:deskcolor="#d1d1d1"
     inkscape:document-units="mm"
     showgrid="false" /><defs
     id="defs8502"><clipPath
       clipPathUnits="userSpaceOnUse"
       id="clipPath9144"><path
         d="M 0,187.043 H 488.508 V 0 H 0 Z"
         id="path9142" /></clipPath></defs><g
     id="g9138"
     transform="matrix(0.35277776,0,0,-0.35277778,-15.000463,50.984432)"><g
       id="g9140"
       clip-path="url(#clipPath9144)"><g
         id="g9146"
         transform="translate(188.7693,102.0118)">
   <style>
        path {
            fill: black;
        }
        @media (prefers-color-scheme: dark) {
            path { fill: white; }
        }
        body.dark-theme path {
            fill: white;
        }
    </style>
<path
           d="M 0,0 C 0,-2.348 1.911,-4.262 4.259,-4.262 6.61,-4.262 8.517,-2.348 8.517,0 8.517,2.338 6.61,4.255 4.259,4.255 1.911,4.255 0,2.338 0,0 m 225.267,15.577 c 2.193,0.212 4.258,0.131 6.236,-0.23 5.439,-1.014 15.315,-7.687 6.449,-26.036 -0.018,-0.017 -0.035,-0.06 -0.047,-0.105 l -1.43,2.852 c 3.252,5.506 5.228,12.752 2.011,17.412 -3.274,4.704 -8.243,5.444 -13.741,4.182 0.198,0.724 0.371,1.377 0.522,1.925 m -37.774,-27.923 c -1.226,0.873 -2.893,2.179 -4.38,3.511 5.828,12.091 17.411,28.013 25.014,35.01 5.892,5.437 8.746,6.32 12.75,5.031 5.308,-1.716 4.87,-3.654 1.826,-14.809 -3.513,-12.884 -6.964,-27.227 -6.656,-34.975 0.159,-4.015 1.758,-3.988 5.359,-2.497 3.466,1.426 8.113,4.368 12.195,9.1 0.024,0.025 0.049,0.061 0.081,0.096 l 1.649,-3.398 c -3.785,-5.727 -8.987,-10.423 -14.464,-12.822 -7.313,-3.203 -12.183,-1.54 -12.674,4.698 -0.529,6.845 1.187,16.2 4.577,28.476 2.96,10.721 7.069,21.241 5.869,21.763 -1.885,0.812 -12.18,-9.735 -19.284,-22.778 0,0 5.608,4.182 12.489,7.403 -0.406,-1.324 -0.816,-2.673 -1.201,-4.05 -8.305,-5.022 -15.494,-12.197 -19.803,-18.929 -0.593,-0.928 -1.215,-1.395 -1.917,-1.395 -0.445,0 -0.918,0.184 -1.43,0.565 m 27.205,54.857 c -23.484,0 -42.521,-19.035 -42.521,-42.521 0,-23.484 19.037,-42.518 42.521,-42.518 23.484,0 42.521,19.034 42.521,42.518 0,23.486 -19.037,42.521 -42.521,42.521"
           style="fill-opacity:1;fill-rule:nonzero;stroke:none"/></g><path
         d="m 145.922,42.521 h 2.309 v 16.954 h -2.309 z m -40.569,13.14 v 3.813 h -2.164 V 42.521 h 2.299 v 8.613 c 0,1.8 0.32,3.495 1.63,4.837 0.954,0.996 2.258,1.561 3.635,1.561 0.671,0 1.307,-0.106 1.938,-0.327 v 2.269 c -0.631,0.177 -1.232,0.318 -1.902,0.318 -2.682,0 -4.598,-1.669 -5.436,-4.131 m 30.547,0 v 3.813 h -2.157 V 42.521 h 2.299 v 8.613 c 0,1.8 0.317,3.495 1.624,4.837 0.957,0.996 2.259,1.561 3.636,1.561 0.671,0 1.307,-0.106 1.942,-0.327 v 2.269 c -0.635,0.177 -1.231,0.318 -1.906,0.318 -2.68,0 -4.594,-1.669 -5.438,-4.131 M 120.114,44.996 c -1.872,1.301 -2.542,3.737 -2.542,5.93 0,2.291 0.806,5.018 2.899,6.279 0.667,0.433 1.367,0.68 2.183,0.68 3.46,0 5.018,-3.856 5.018,-6.787 0,-2.965 -1.452,-6.989 -4.983,-6.989 -0.918,0 -1.84,0.354 -2.575,0.887 m -2.617,11.23 v 3.239 h -2.154 V 36.087 h 2.299 v 8.835 c 1.089,-1.872 2.894,-2.829 5.047,-2.829 4.841,0 7.352,4.698 7.352,9.005 0,4.139 -2.444,8.79 -7.105,8.79 -2.51,0 -4.34,-1.547 -5.439,-3.662 m -56.932,0.071 v 3.168 H 58.376 V 42.521 h 2.295 v 7.557 c 0,2.327 -0.106,5.01 1.869,6.642 0.818,0.667 1.84,1.024 2.905,1.024 2.435,0 3.984,-1.8 3.984,-4.166 0,-0.396 0.039,-0.777 0.039,-1.173 v -9.884 h 2.299 V 52.66 c 0,1.942 -0.109,3.46 -1.239,5.084 -1.06,1.483 -2.966,2.154 -4.736,2.154 -2.469,0 -4.27,-1.342 -5.227,-3.601 m 27.577,-1.978 c 0.681,2.013 2.199,3.637 4.422,3.637 3.04,0 4.664,-2.401 4.59,-5.233 v -0.601 h -9.435 c 0.08,0.742 0.176,1.483 0.423,2.197 m -2.748,-3.044 c 0,-5.755 3.249,-9.182 9.006,-9.182 1.381,0 2.754,0.216 4.064,0.71 l 0.035,2.046 C 97.228,44.347 95.847,44.1 94.47,44.1 c -2.754,0 -5.294,1.243 -6.247,3.962 -0.257,0.706 -0.424,1.412 -0.424,2.154 H 99.17 c 0.181,0.822 0.314,1.624 0.314,2.471 0,3.927 -2.644,7.211 -6.703,7.211 -4.815,0 -7.387,-4.202 -7.387,-8.623 m 66.821,4.104 c 0,-5.369 8.94,-4.453 8.94,-8.517 0,-2.223 -2.263,-2.727 -4.064,-2.727 -1.557,0 -3.111,0.176 -4.594,0.679 v -2.046 c 1.483,-0.459 3.252,-0.675 4.837,-0.675 2.964,0 6.222,1.23 6.222,4.698 0,5.728 -9.042,4.986 -9.042,8.623 0,1.801 1.941,2.426 3.42,2.426 1.66,0 3.323,-0.237 4.942,-0.661 v 2.048 c -1.619,0.414 -3.239,0.671 -4.942,0.671 -2.718,0 -5.719,-1.377 -5.719,-4.519 m 16.706,-1.06 c 0.671,2.013 2.189,3.637 4.418,3.637 3.036,0 4.664,-2.401 4.594,-5.233 v -0.601 h -9.436 c 0.075,0.742 0.173,1.483 0.424,2.197 m -2.754,-3.044 c 0,-5.755 3.248,-9.182 9.004,-9.182 1.381,0 2.762,0.216 4.062,0.71 l 0.035,2.046 c -1.265,-0.502 -2.652,-0.749 -4.023,-0.749 -2.758,0 -5.3,1.243 -6.253,3.962 -0.251,0.706 -0.42,1.412 -0.42,2.154 h 11.373 c 0.175,0.822 0.312,1.624 0.312,2.471 0,3.927 -2.648,7.211 -6.707,7.211 -4.809,0 -7.383,-4.202 -7.383,-8.623 M 76.781,63.074 V 47.25 c 0,-3.317 1.195,-4.977 4.729,-4.977 0.958,0 1.907,0.106 2.825,0.354 v 1.975 c -0.883,-0.21 -1.726,-0.351 -2.648,-0.351 -2.158,0 -2.617,1.128 -2.617,3.07 v 10.07 h 4.841 v 2.083 H 79.07 v 5.047 z m 68.794,0.953 c 0,-0.953 0.494,-1.412 1.451,-1.412 0.993,0 1.517,0.423 1.517,1.447 0,1.024 -0.489,1.493 -1.481,1.493 -1.066,0 -1.487,-0.494 -1.487,-1.528 M 42.521,67.452 V 42.521 H 54.18 V 44.7 h -9.223 v 9.474 h 8.511 v 2.017 h -8.511 v 9.142 h 9.223 v 2.119 z m 201,45.785 V 99.531 c 0,-2.434 0.165,-5.622 -1.995,-7.405 -0.704,-0.533 -1.671,-1.018 -3.723,-1.071 -1.889,0 -3.185,0.587 -3.782,1.02 -2.207,1.509 -2.26,4.098 -2.26,6.468 v 14.694 h -4.919 V 98.931 c 0,-2.162 0.061,-4.474 0.812,-6.416 1.081,-2.762 3.676,-4.704 6.53,-5.408 0.539,-0.161 1.889,-0.371 3.509,-0.371 1.032,0 3.617,0 6.103,1.455 2.969,1.668 3.776,4.051 4.16,5.348 0.434,1.616 0.481,2.799 0.481,5.992 v 13.706 z M 84.878,105.894 c -0.91,-2.324 -0.971,-4.535 -0.971,-5.445 0,-7.617 5.132,-13.66 12.96,-13.713 2.264,0 4.047,0.537 4.747,0.855 0.491,0.159 1.024,0.485 1.458,0.759 l -0.057,4.165 c -0.804,-0.495 -2.587,-1.57 -5.23,-1.57 -3.728,0 -6.804,2.162 -8.103,5.665 -0.643,1.678 -0.643,3.08 -0.643,3.839 0,5.173 3.023,7.493 4.915,8.349 1.562,0.768 3.019,0.821 3.663,0.821 0.653,0 2.542,-0.053 4.268,-1.02 0.326,-0.172 0.379,-0.233 0.916,-0.594 h 0.059 v 4.368 c -2.817,1.35 -4.869,1.456 -6.214,1.456 -7.656,0 -10.789,-5.347 -11.768,-7.935 m 27.213,-13.599 c -0.547,0.643 -0.759,1.456 -0.759,2.374 0,1.504 0.586,2.701 1.72,3.619 2.433,1.994 6.483,2.1 9.396,2.1 V 90.84 c -1.885,-0.328 -3.509,-0.389 -4.268,-0.389 -3.229,0 -5.071,0.547 -6.089,1.844 m -1.787,20.078 c -0.596,-0.274 -1.183,-0.547 -1.726,-0.817 l -0.053,-4.098 c 0.486,0.272 0.971,0.6 1.518,0.82 2.048,0.961 4.743,1.659 7.066,1.659 3.022,0 4.482,-1.183 5.015,-2.418 0.275,-0.654 0.324,-1.191 0.324,-2.701 v -1.191 c -4.423,0 -9.608,-0.222 -13.278,-3.397 -2.485,-2.109 -2.697,-4.651 -2.697,-5.887 0,-5.777 5.349,-6.964 6.858,-7.236 0.808,-0.161 2.479,-0.371 4.643,-0.371 1.296,0 5.286,0.106 9.225,0.961 l 0.059,17.332 c 0,2.588 -0.328,3.769 -0.812,4.802 -0.43,0.979 -1.293,1.725 -1.564,1.95 -1.243,1.069 -3.348,2.048 -7.02,2.048 -3.564,0 -6.318,-0.979 -7.558,-1.456 m 45.283,-3.664 c 1.023,0.857 2.316,1.281 3.719,1.281 3.244,0.053 4.699,-2.26 5.239,-3.23 1.022,-1.942 0.863,-4.104 0.863,-4.757 H 152.78 c 0.052,0.865 0.215,4.488 2.807,6.706 m -6.748,-2.285 c -0.975,-2.471 -1.028,-4.898 -1.028,-5.877 -0.053,-7.493 4.051,-11.006 6.801,-12.356 2.92,-1.455 6.212,-1.455 7.183,-1.455 3.344,0 5.665,0.643 6.848,1.075 l 0.062,3.947 c -2.863,-1.024 -4.862,-1.14 -6.155,-1.14 -2.211,0 -3.513,0.38 -4.431,0.698 -2.268,0.865 -4.047,2.752 -4.8,5.075 -0.165,0.441 -0.377,1.19 -0.487,2.328 h 16.791 c 0.481,1.995 0.534,2.693 0.534,3.77 0,6.432 -4.202,11.34 -10.794,11.34 -6.905,0 -9.663,-5.294 -10.524,-7.405 m 105.163,-0.53 c -0.915,-2.324 -0.971,-4.535 -0.971,-5.445 0,-7.617 5.127,-13.66 12.956,-13.713 2.267,0 4.046,0.537 4.747,0.855 0.49,0.159 1.029,0.485 1.457,0.759 l -0.049,4.165 c -0.812,-0.495 -2.595,-1.57 -5.237,-1.57 -3.725,0 -6.801,2.162 -8.102,5.665 -0.645,1.678 -0.645,3.08 -0.645,3.839 0,5.173 3.019,7.493 4.912,8.349 1.567,0.768 3.023,0.821 3.666,0.821 0.649,0 2.546,-0.053 4.268,-1.02 0.326,-0.172 0.383,-0.233 0.916,-0.594 h 0.059 v 4.368 c -2.811,1.35 -4.862,1.456 -6.212,1.456 -7.656,0 -10.794,-5.347 -11.765,-7.935 m 29.256,2.815 c 1.028,0.857 2.325,1.281 3.723,1.281 3.235,0.053 4.692,-2.26 5.234,-3.23 1.024,-1.942 0.865,-4.104 0.865,-4.757 h -12.629 c 0.057,0.865 0.216,4.488 2.807,6.706 m -6.744,-2.285 c -0.975,-2.471 -1.028,-4.898 -1.028,-5.877 -0.056,-7.493 4.047,-11.006 6.791,-12.356 2.923,-1.455 6.215,-1.455 7.189,-1.455 3.345,0 5.675,0.643 6.858,1.075 l 0.053,3.947 c -2.87,-1.024 -4.859,-1.14 -6.161,-1.14 -2.205,0 -3.504,0.38 -4.422,0.698 -2.259,0.865 -4.05,2.752 -4.799,5.075 -0.163,0.441 -0.381,1.19 -0.487,2.328 h 16.791 c 0.477,1.995 0.537,2.693 0.537,3.77 0,6.432 -4.213,11.34 -10.796,11.34 -6.911,0 -9.668,-5.294 -10.526,-7.405 m 32.544,3.733 c -0.374,-0.538 -0.808,-1.403 -1.076,-1.995 v 5.075 h -4.694 V 87.322 h 4.919 v 11.672 c 0,3.062 -0.063,6.795 2.638,9.011 1.509,1.181 3.072,1.35 3.782,1.35 1.885,0 3.076,-0.82 3.561,-1.297 1.775,-1.687 1.836,-3.947 1.836,-6.214 V 87.322 h 4.911 v 15.122 c 0,3.609 -0.106,7.281 -3.344,9.708 -2.109,1.571 -4.598,1.677 -5.512,1.677 -1.505,0 -4.643,-0.328 -7.021,-3.672 M 56.389,116.671 61.403,98.578 H 51.332 Z m -3.172,4.694 -10.541,-34.043 h 5.262 l 2.072,6.707 h 12.707 l 2.065,-6.707 h 5.283 l -10.393,34.043 z m 152.589,0 V 87.322 h 18.447 v 4.594 h -13.535 v 29.449 z M 73.705,87.322 h 4.906 v 34.043 h -4.906 z m 101.636,0 h 4.912 v 34.043 h -4.912 z m -41.932,30.815 V 96.338 c 0,-3.178 0.11,-6.638 3.398,-8.421 1.892,-1.028 4.213,-1.028 4.862,-1.028 1.611,0 2.858,0.173 4.422,0.49 l 0.053,4.051 c -1.727,-0.432 -2.539,-0.485 -3.451,-0.485 -0.645,0 -3.452,-0.105 -4.209,2.48 -0.218,0.865 -0.169,2.109 -0.169,2.32 v 13.38 h 7.289 v 4.051 h -7.289 v 8.754 z m 198.278,0 V 96.338 c 0,-3.178 0.106,-6.638 3.393,-8.421 1.893,-1.028 4.214,-1.028 4.867,-1.028 1.614,0 2.854,0.173 4.425,0.49 l 0.045,4.051 c -1.716,-0.432 -2.528,-0.485 -3.45,-0.485 -0.645,0 -3.456,-0.105 -4.206,2.48 -0.221,0.865 -0.162,2.109 -0.162,2.32 v 13.38 h 7.279 v 4.051 h -7.279 v 8.754 z"
         style="fill-opacity:1;fill-rule:nonzero;stroke:none"
         id="path9150" /></g></g></svg>
