<svg id="svg" version="1.1" xmlns="http://www.w3.org/2000/svg" xmlns:xlink="http://www.w3.org/1999/xlink" width="400" height="400" viewBox="0, 0, 400,400"><g id="svgg"><path id="path0" d="M191.800 75.852 C 190.920 75.945,189.840 76.183,189.400 76.381 C 188.960 76.579,187.340 76.956,185.800 77.219 C 184.260 77.481,182.460 77.930,181.800 78.216 C 181.140 78.502,180.150 78.859,179.600 79.010 C 178.511 79.307,170.325 83.243,170.000 83.625 C 169.890 83.755,169.170 84.207,168.400 84.630 C 167.630 85.054,166.856 85.625,166.680 85.900 C 166.504 86.175,166.132 86.400,165.852 86.400 C 164.777 86.400,157.299 93.888,153.244 99.025 C 153.059 99.259,152.677 99.889,152.394 100.425 C 152.112 100.961,151.734 101.496,151.556 101.614 C 151.378 101.731,150.502 103.246,149.611 104.979 C 148.719 106.712,147.834 108.326,147.644 108.565 C 147.454 108.804,147.170 109.450,147.013 110.000 C 146.856 110.550,146.306 112.080,145.791 113.401 C 145.275 114.721,144.729 116.746,144.575 117.901 C 144.422 119.055,144.166 120.000,144.005 120.000 C 142.556 120.000,142.523 141.311,143.967 144.600 C 144.160 145.040,144.536 146.480,144.803 147.800 C 145.070 149.120,145.607 150.920,145.996 151.800 C 146.386 152.680,146.834 153.822,146.991 154.337 C 147.148 154.852,147.845 156.359,148.539 157.686 C 149.232 159.012,150.125 160.724,150.522 161.489 C 150.920 162.255,151.595 163.257,152.022 163.716 C 152.450 164.175,152.800 164.787,152.800 165.075 C 152.800 165.364,152.974 165.600,153.187 165.600 C 153.400 165.600,153.805 166.024,154.087 166.543 C 154.767 167.792,157.854 171.404,159.571 172.959 C 160.325 173.641,161.233 174.470,161.588 174.800 C 164.208 177.237,170.324 181.479,172.087 182.082 C 172.809 182.329,173.490 182.652,173.600 182.799 C 173.836 183.115,177.598 184.857,179.600 185.577 C 180.370 185.854,181.360 186.233,181.800 186.420 C 182.240 186.606,183.680 186.967,185.000 187.223 C 186.320 187.478,187.580 187.823,187.800 187.989 C 188.020 188.155,188.470 188.310,188.800 188.333 C 189.130 188.356,191.749 188.582,194.620 188.836 C 198.555 189.183,200.966 189.183,204.420 188.837 C 206.939 188.584,209.352 188.373,209.782 188.370 C 210.211 188.366,210.751 188.215,210.982 188.034 C 211.212 187.853,212.615 187.481,214.100 187.207 C 215.585 186.934,216.800 186.570,216.800 186.399 C 216.800 186.229,217.472 185.963,218.293 185.809 C 219.114 185.655,220.906 185.005,222.276 184.365 C 223.646 183.724,224.954 183.200,225.183 183.200 C 225.412 183.200,225.600 183.047,225.600 182.860 C 225.600 182.673,226.410 182.187,227.400 181.778 C 228.390 181.370,229.200 180.905,229.200 180.745 C 229.200 180.585,229.559 180.340,229.998 180.201 C 230.436 180.062,231.021 179.731,231.298 179.466 C 231.574 179.200,232.790 178.275,234.000 177.410 C 238.041 174.518,245.457 166.405,247.878 162.226 C 249.026 160.246,251.600 154.871,251.600 154.455 C 251.600 154.205,251.753 154.000,251.941 154.000 C 252.128 154.000,252.607 152.785,253.005 151.300 C 253.402 149.815,253.860 148.510,254.023 148.400 C 254.185 148.290,254.610 146.490,254.967 144.400 C 255.324 142.310,255.732 139.970,255.875 139.200 C 256.409 136.318,256.205 124.595,255.607 123.800 C 255.442 123.580,255.186 122.410,255.039 121.200 C 254.625 117.789,254.324 116.342,254.080 116.586 C 253.883 116.784,252.466 112.202,252.322 110.900 C 252.292 110.625,252.131 110.400,251.965 110.400 C 251.799 110.400,251.545 109.858,251.399 109.196 C 251.254 108.534,250.924 107.761,250.667 107.479 C 250.410 107.197,249.570 105.737,248.800 104.234 C 248.030 102.732,247.130 101.176,246.800 100.777 C 246.470 100.379,245.485 99.051,244.612 97.826 C 243.739 96.602,242.884 95.600,242.712 95.600 C 242.540 95.600,242.400 95.414,242.400 95.188 C 242.400 94.367,235.171 87.709,232.860 86.400 C 232.277 86.070,231.656 85.575,231.480 85.300 C 231.304 85.025,230.933 84.800,230.656 84.800 C 230.378 84.800,229.802 84.475,229.375 84.078 C 228.949 83.680,228.015 83.097,227.300 82.780 C 226.585 82.464,226.000 82.097,226.000 81.966 C 226.000 81.835,225.280 81.490,224.400 81.200 C 223.520 80.910,222.800 80.551,222.800 80.403 C 222.800 80.255,222.575 80.117,222.300 80.096 C 221.700 80.051,218.670 78.978,217.000 78.219 C 216.340 77.918,214.360 77.439,212.600 77.154 C 210.840 76.869,209.283 76.466,209.140 76.259 C 208.875 75.876,194.709 75.542,191.800 75.852 M206.132 91.065 C 206.278 91.211,207.292 91.646,208.386 92.031 C 211.875 93.260,212.528 94.349,212.293 98.547 C 212.184 100.498,211.920 102.208,211.706 102.347 C 211.492 102.486,211.087 103.860,210.806 105.400 C 210.525 106.940,210.156 108.380,209.986 108.600 C 209.816 108.820,209.354 110.530,208.960 112.400 C 208.566 114.270,208.132 115.890,207.995 116.000 C 207.718 116.223,206.732 120.248,205.547 126.000 C 205.116 128.090,204.604 130.160,204.409 130.600 C 204.214 131.040,203.763 132.930,203.407 134.800 C 203.050 136.670,202.498 139.550,202.179 141.200 C 201.860 142.850,201.481 145.961,201.338 148.114 C 201.195 150.267,200.925 152.123,200.739 152.238 C 200.254 152.537,200.312 158.400,200.800 158.400 C 201.020 158.400,201.200 158.850,201.200 159.400 C 201.200 164.888,212.578 160.649,221.868 151.700 C 223.295 150.325,224.521 149.200,224.592 149.200 C 224.833 149.200,225.600 151.713,225.600 152.501 C 225.600 153.530,217.806 162.800,216.941 162.800 C 216.845 162.800,216.549 162.983,216.283 163.207 C 214.419 164.779,213.816 165.204,213.152 165.415 C 212.739 165.546,212.400 165.813,212.400 166.008 C 212.400 166.203,211.725 166.679,210.900 167.066 C 210.075 167.453,209.177 167.987,208.904 168.252 C 208.631 168.518,207.866 168.854,207.204 168.999 C 206.542 169.145,206.000 169.404,206.000 169.577 C 206.000 170.504,197.828 171.171,195.820 170.408 C 194.330 169.841,192.406 167.730,192.132 166.361 C 192.003 165.714,191.740 165.086,191.548 164.968 C 191.099 164.691,191.090 153.715,191.539 153.438 C 191.725 153.323,191.892 152.708,191.910 152.071 C 191.968 150.061,193.287 141.418,193.601 141.000 C 193.766 140.780,194.221 138.755,194.612 136.500 C 195.002 134.245,195.442 132.400,195.588 132.400 C 195.734 132.400,196.090 131.185,196.379 129.700 C 196.668 128.215,197.035 126.820,197.194 126.600 C 197.353 126.380,197.813 124.715,198.217 122.900 C 198.621 121.085,199.073 119.600,199.223 119.600 C 199.373 119.600,199.717 118.477,199.987 117.105 C 200.257 115.733,200.704 114.158,200.980 113.605 C 201.257 113.052,201.703 111.702,201.971 110.605 C 202.240 109.508,202.602 108.428,202.777 108.205 C 202.952 107.982,203.323 106.810,203.600 105.600 C 203.878 104.390,204.273 103.077,204.477 102.681 C 205.015 101.640,205.629 97.521,205.368 96.700 C 204.844 95.050,201.680 96.748,197.505 100.921 C 194.290 104.134,190.400 108.608,190.400 109.092 C 190.400 109.265,190.040 109.632,189.600 109.907 C 189.160 110.182,188.800 110.669,188.800 110.989 C 188.800 111.310,188.440 111.765,188.000 112.000 C 187.560 112.235,187.193 112.647,187.184 112.914 C 187.175 113.181,186.635 114.023,185.984 114.785 C 185.333 115.547,184.800 116.387,184.800 116.652 C 184.800 116.917,184.655 117.193,184.477 117.267 C 184.003 117.462,181.200 121.803,181.200 122.341 C 181.200 122.594,181.047 122.800,180.861 122.800 C 180.674 122.800,180.184 123.565,179.772 124.500 C 179.359 125.435,178.842 126.325,178.623 126.478 C 178.403 126.631,178.345 126.878,178.493 127.026 C 178.855 127.389,180.615 126.923,181.272 126.291 C 182.128 125.466,186.301 122.800,186.734 122.800 C 186.954 122.800,187.193 122.650,187.267 122.467 C 187.536 121.794,194.400 118.329,194.398 118.868 C 194.390 120.702,193.531 122.254,192.107 123.005 C 191.278 123.442,190.420 123.936,190.200 124.103 C 183.412 129.246,181.872 130.564,177.219 135.222 C 173.175 139.268,170.806 141.872,170.784 142.295 C 170.775 142.463,170.235 143.223,169.584 143.985 C 168.933 144.747,168.400 145.512,168.400 145.685 C 168.400 145.858,168.063 146.338,167.650 146.750 C 167.237 147.163,166.832 147.689,166.750 147.920 C 166.668 148.152,166.150 148.451,165.600 148.586 C 164.580 148.835,164.361 148.707,160.746 145.734 C 159.899 145.038,158.999 144.400,158.745 144.315 C 158.285 144.162,159.718 140.906,161.789 137.400 C 162.309 136.520,163.058 135.170,163.454 134.400 C 164.186 132.976,165.703 130.546,166.340 129.775 C 166.534 129.541,166.923 128.911,167.206 128.375 C 167.488 127.839,167.828 127.310,167.960 127.200 C 168.092 127.090,168.546 126.370,168.969 125.600 C 169.392 124.830,169.977 124.056,170.269 123.880 C 170.561 123.704,170.800 123.377,170.800 123.153 C 170.800 122.739,172.600 120.128,173.387 119.400 C 173.625 119.180,174.523 117.920,175.383 116.600 C 176.244 115.280,177.072 114.110,177.225 114.000 C 177.600 113.730,180.400 110.039,180.400 109.815 C 180.400 109.717,180.805 109.208,181.300 108.684 C 181.795 108.161,183.280 106.488,184.600 104.967 C 192.625 95.722,199.173 90.910,203.833 90.833 C 204.952 90.815,205.986 90.919,206.132 91.065 M222.500 112.656 C 223.874 112.952,223.943 113.600,222.600 113.600 C 222.050 113.600,221.600 113.406,221.600 113.170 C 221.600 112.692,216.030 112.855,214.527 113.376 C 213.766 113.640,213.684 113.564,213.888 112.783 C 214.125 111.878,218.594 111.812,222.500 112.656 M228.203 115.605 C 228.345 115.834,228.011 115.806,227.425 115.539 C 226.861 115.282,226.400 114.914,226.400 114.722 C 226.400 114.312,227.840 115.018,228.203 115.605 M232.794 121.344 C 232.787 121.822,232.258 121.157,231.564 119.800 C 231.242 119.171,231.331 119.202,231.977 119.944 C 232.430 120.464,232.797 121.094,232.794 121.344 M234.224 125.856 C 234.539 128.375,234.130 135.263,233.646 135.589 C 233.475 135.705,233.100 136.925,232.813 138.300 C 232.526 139.675,232.168 140.800,232.018 140.800 C 231.869 140.800,231.423 141.827,231.027 143.081 C 230.365 145.182,230.264 145.302,229.754 144.605 C 229.001 143.575,229.060 142.434,229.941 140.990 C 230.346 140.325,230.912 139.065,231.197 138.190 C 231.482 137.316,231.867 136.501,232.051 136.381 C 232.235 136.260,232.580 134.730,232.818 132.981 C 233.055 131.231,233.437 129.197,233.665 128.460 C 233.960 127.508,233.953 126.993,233.640 126.680 C 233.107 126.147,233.050 123.600,233.571 123.600 C 233.775 123.600,234.069 124.615,234.224 125.856 M196.787 231.128 C 190.841 233.763,192.602 243.200,199.039 243.200 C 205.458 243.200,207.617 234.326,201.920 231.362 C 200.806 230.782,197.869 230.649,196.787 231.128 " stroke="none" fill="#5c4494" fill-rule="evenodd"></path><path id="path1" d="M124.400 211.603 C 123.630 212.263,122.685 212.905,122.300 213.029 C 121.915 213.153,121.600 213.426,121.600 213.637 C 121.600 213.847,121.136 214.196,120.568 214.412 L 119.536 214.805 119.668 232.817 C 119.756 244.882,119.940 250.924,120.223 251.115 C 120.455 251.272,120.875 251.969,121.156 252.664 C 122.663 256.392,128.801 258.150,136.100 256.943 L 137.600 256.695 137.600 253.548 C 137.600 251.816,137.555 250.401,137.500 250.402 C 137.445 250.404,136.339 250.578,135.041 250.791 C 128.007 251.943,127.429 251.013,127.275 238.301 L 127.151 228.000 132.175 228.000 L 137.200 228.000 137.200 224.800 L 137.200 221.600 132.200 221.600 L 127.200 221.600 127.200 216.000 C 127.200 209.641,127.019 209.356,124.400 211.603 M386.800 211.600 C 386.030 212.259,385.289 212.799,385.154 212.799 C 385.019 212.800,384.335 213.300,383.635 213.912 L 382.362 215.024 382.481 233.230 C 382.613 253.483,382.423 252.083,385.444 255.017 C 387.232 256.753,389.825 257.322,395.115 257.141 C 399.954 256.975,399.985 256.950,399.994 253.082 L 400.000 250.364 398.500 250.661 C 394.962 251.363,392.436 251.021,391.071 249.656 L 389.800 248.386 389.670 238.193 L 389.539 228.000 394.370 228.000 L 399.200 228.000 399.200 224.800 L 399.200 221.600 394.400 221.600 L 389.600 221.600 389.600 216.000 C 389.600 209.641,389.420 209.358,386.800 211.600 M12.710 213.900 C 12.137 215.605,11.542 217.675,11.389 218.500 C 11.236 219.325,10.984 220.000,10.829 220.000 C 10.674 220.000,10.314 221.170,10.030 222.600 C 9.746 224.030,9.377 225.200,9.211 225.200 C 9.045 225.200,8.679 226.325,8.397 227.700 C 8.116 229.075,7.568 230.920,7.181 231.800 C 6.793 232.680,6.255 234.525,5.986 235.900 C 5.716 237.275,5.368 238.400,5.212 238.400 C 5.055 238.400,4.697 239.435,4.415 240.700 C 4.134 241.965,3.789 243.090,3.649 243.200 C 3.509 243.310,3.058 244.750,2.648 246.400 C 2.238 248.050,1.770 249.580,1.609 249.800 C 1.265 250.271,0.000 255.286,0.000 256.182 C 0.000 256.698,0.655 256.800,3.945 256.800 L 7.891 256.800 8.413 254.300 C 8.700 252.925,9.048 251.710,9.187 251.600 C 9.326 251.490,9.662 250.635,9.936 249.700 L 10.432 248.000 18.398 248.000 L 26.364 248.000 26.626 249.400 C 26.771 250.170,27.049 250.800,27.245 250.800 C 27.440 250.800,27.600 251.103,27.600 251.474 C 27.600 251.844,27.894 253.194,28.253 254.474 L 28.905 256.800 33.084 256.800 L 37.264 256.800 36.982 255.500 C 36.826 254.785,36.558 254.109,36.386 253.999 C 36.213 253.888,35.840 252.673,35.556 251.299 C 35.272 249.924,34.919 248.800,34.771 248.800 C 34.623 248.800,34.181 247.270,33.788 245.400 C 33.396 243.530,32.952 242.000,32.801 242.000 C 32.651 242.000,32.299 240.965,32.019 239.700 C 31.740 238.435,31.371 237.220,31.200 237.000 C 31.029 236.780,30.567 235.250,30.175 233.600 C 29.783 231.950,29.336 230.510,29.182 230.400 C 29.028 230.290,28.598 228.855,28.226 227.211 C 27.854 225.567,27.405 224.037,27.227 223.811 C 27.050 223.585,26.678 222.410,26.400 221.200 C 26.122 219.990,25.761 218.820,25.596 218.600 C 25.432 218.380,24.972 216.805,24.575 215.100 C 24.178 213.395,23.707 212.000,23.527 212.000 C 23.347 212.000,23.200 211.730,23.200 211.400 C 23.200 210.901,22.409 210.800,18.477 210.800 L 13.753 210.800 12.710 213.900 M40.800 233.800 L 40.800 256.800 44.600 256.800 L 48.400 256.800 48.400 233.800 L 48.400 210.800 44.600 210.800 L 40.800 210.800 40.800 233.800 M175.600 233.800 L 175.600 256.800 179.000 256.800 L 182.400 256.800 182.400 233.800 L 182.400 210.800 179.000 210.800 L 175.600 210.800 175.600 233.800 M215.467 211.067 C 215.320 211.213,215.200 221.563,215.200 234.067 L 215.200 256.800 228.000 256.800 L 240.800 256.800 240.800 253.200 L 240.800 249.600 232.000 249.600 L 223.200 249.600 223.200 230.200 L 223.200 210.800 219.467 210.800 C 217.413 210.800,215.613 210.920,215.467 211.067 M19.169 222.782 C 19.446 224.332,19.799 225.600,19.954 225.600 C 20.109 225.600,20.561 227.175,20.959 229.100 C 21.357 231.025,21.824 232.780,21.998 233.000 C 22.171 233.220,22.534 234.480,22.803 235.800 C 23.073 237.120,23.424 238.290,23.584 238.400 C 23.744 238.510,23.988 239.185,24.127 239.900 L 24.380 241.200 18.390 241.200 C 12.587 241.200,11.112 240.843,12.743 239.835 C 12.932 239.718,13.416 237.998,13.820 236.012 C 14.223 234.025,14.678 232.400,14.831 232.400 C 14.984 232.400,15.331 231.228,15.601 229.795 C 15.871 228.362,16.226 227.107,16.389 227.007 C 16.553 226.906,17.014 225.207,17.415 223.232 C 18.267 219.039,18.490 218.982,19.169 222.782 M70.400 220.800 C 70.400 221.020,69.719 221.200,68.887 221.200 C 66.923 221.200,63.065 222.204,62.879 222.764 C 62.799 223.004,62.489 223.200,62.189 223.200 C 61.890 223.200,61.410 223.527,61.123 223.926 C 60.835 224.326,60.281 224.772,59.891 224.917 C 59.501 225.063,59.063 225.501,58.917 225.891 C 58.772 226.281,58.326 226.835,57.926 227.123 C 57.527 227.410,57.200 227.892,57.200 228.194 C 57.200 228.496,56.934 229.009,56.608 229.335 C 56.283 229.660,55.791 230.798,55.515 231.863 C 55.239 232.928,54.848 233.918,54.645 234.062 C 54.138 234.422,54.172 243.609,54.681 243.938 C 54.903 244.082,55.213 244.920,55.369 245.800 C 55.526 246.680,56.092 248.071,56.627 248.891 C 57.162 249.712,57.600 250.513,57.600 250.671 C 57.600 251.153,61.597 254.745,62.425 255.008 C 62.851 255.143,63.200 255.393,63.200 255.563 C 63.200 257.080,76.485 257.649,79.300 256.253 L 80.800 255.509 80.800 252.302 L 80.800 249.095 79.332 249.333 C 78.525 249.464,77.735 249.782,77.576 250.039 C 76.847 251.219,69.270 251.178,68.867 249.992 C 68.793 249.776,68.479 249.600,68.168 249.600 C 67.433 249.600,64.400 246.860,64.400 246.196 C 64.400 245.915,64.165 245.596,63.879 245.485 C 62.563 244.981,61.965 237.974,62.955 234.682 C 63.530 232.771,66.846 228.800,67.866 228.800 C 68.160 228.800,68.400 228.643,68.400 228.452 C 68.400 227.278,76.666 227.188,77.600 228.351 C 77.849 228.661,79.510 229.600,79.810 229.600 C 79.931 229.600,79.978 227.946,79.915 225.925 L 79.800 222.250 77.800 221.733 C 76.700 221.448,75.125 221.212,74.300 221.208 C 73.475 221.203,72.800 221.020,72.800 220.800 C 72.800 220.580,72.260 220.400,71.600 220.400 C 70.940 220.400,70.400 220.580,70.400 220.800 M98.800 220.800 C 98.800 221.020,97.891 221.200,96.779 221.200 C 94.241 221.200,89.222 222.320,88.493 223.050 C 88.190 223.352,87.686 223.600,87.371 223.600 C 86.921 223.600,86.800 224.320,86.800 227.000 C 86.800 228.870,86.925 230.400,87.077 230.400 C 87.230 230.400,88.664 229.762,90.265 228.981 C 98.090 225.167,105.200 226.997,105.200 232.826 L 105.200 234.400 102.177 234.400 C 98.859 234.400,93.600 235.144,93.600 235.614 C 93.600 235.777,92.960 236.031,92.177 236.178 C 91.394 236.325,90.454 236.795,90.088 237.222 C 89.722 237.650,89.214 238.000,88.959 238.000 C 88.408 238.000,86.000 240.386,86.000 240.932 C 86.000 241.141,85.702 241.530,85.337 241.796 C 83.446 243.179,84.320 251.535,86.581 253.690 C 89.997 256.945,90.232 257.000,100.600 257.000 C 105.440 257.000,110.083 256.855,110.918 256.678 L 112.436 256.357 112.318 241.478 C 112.187 225.008,112.440 226.636,109.543 223.577 C 108.274 222.237,105.425 221.200,103.010 221.200 C 102.040 221.200,101.136 221.020,101.000 220.800 C 100.864 220.580,100.313 220.400,99.776 220.400 C 99.239 220.400,98.800 220.580,98.800 220.800 M153.600 220.800 C 153.600 221.020,152.909 221.200,152.064 221.200 C 149.658 221.200,146.857 222.222,145.569 223.569 C 144.922 224.246,144.215 224.800,143.997 224.800 C 143.778 224.800,143.600 224.955,143.600 225.145 C 143.600 225.335,143.175 225.920,142.656 226.445 C 142.137 226.970,141.471 228.075,141.176 228.900 C 140.881 229.725,140.517 230.400,140.367 230.400 C 138.858 230.400,138.864 246.489,140.374 247.600 C 140.523 247.710,140.897 248.430,141.204 249.200 C 143.683 255.413,154.662 258.946,164.888 256.823 L 167.100 256.364 167.378 253.543 C 167.718 250.096,167.776 250.156,164.652 250.731 C 159.930 251.601,152.400 251.140,152.400 249.981 C 152.400 249.772,152.167 249.600,151.881 249.600 C 151.233 249.600,148.400 246.738,148.400 246.083 C 148.400 245.817,148.238 245.600,148.039 245.600 C 147.662 245.600,146.800 243.473,146.800 242.540 C 146.800 242.100,148.821 242.000,157.750 242.000 L 168.700 242.000 168.950 240.750 C 169.622 237.390,168.911 228.800,167.960 228.800 C 167.810 228.800,167.582 228.382,167.454 227.872 C 166.728 224.981,160.961 221.200,157.277 221.200 C 156.601 221.200,155.936 221.020,155.800 220.800 C 155.664 220.580,155.113 220.400,154.576 220.400 C 154.039 220.400,153.600 220.580,153.600 220.800 M294.400 220.742 C 294.400 220.930,293.206 221.196,291.747 221.332 C 288.820 221.605,286.529 222.560,284.400 224.393 C 283.630 225.056,282.865 225.599,282.700 225.599 C 282.535 225.600,282.400 225.860,282.400 226.177 C 282.400 226.495,282.074 226.990,281.675 227.277 C 281.277 227.565,280.631 228.610,280.240 229.600 C 279.849 230.590,279.375 231.586,279.188 231.813 C 278.045 233.196,278.006 245.188,279.142 245.990 C 279.305 246.106,279.665 246.975,279.942 247.921 C 280.218 248.868,280.705 249.742,281.022 249.864 C 281.340 249.986,281.600 250.316,281.600 250.597 C 281.600 251.240,284.572 254.150,285.959 254.864 C 286.531 255.159,287.225 255.612,287.500 255.872 C 289.008 257.293,300.340 257.659,303.000 256.372 C 304.737 255.532,305.129 249.200,303.445 249.200 C 302.902 249.200,302.184 249.473,301.851 249.806 C 298.499 253.158,287.200 248.865,287.200 244.239 C 287.200 243.924,286.975 243.592,286.700 243.500 C 286.040 243.280,285.990 234.905,286.646 234.485 C 286.891 234.328,287.228 233.767,287.393 233.237 C 287.675 232.336,289.569 230.252,291.485 228.736 C 293.739 226.953,300.178 227.017,302.136 228.841 C 303.759 230.353,304.039 229.893,303.915 225.925 L 303.800 222.250 301.800 221.733 C 300.700 221.448,299.125 221.212,298.300 221.208 C 297.475 221.203,296.800 221.020,296.800 220.800 C 296.800 220.580,296.260 220.400,295.600 220.400 C 294.940 220.400,294.400 220.554,294.400 220.742 M322.400 220.800 C 322.400 221.020,321.725 221.201,320.900 221.202 C 318.723 221.205,316.593 221.890,315.255 223.015 C 314.611 223.557,313.930 224.006,313.742 224.012 C 313.288 224.029,310.800 227.350,310.800 227.939 C 310.800 228.193,310.644 228.400,310.454 228.400 C 310.058 228.400,308.800 231.502,308.800 232.480 C 308.800 232.839,308.598 233.201,308.351 233.283 C 307.715 233.495,307.704 244.101,308.339 244.313 C 308.592 244.397,308.800 244.780,308.800 245.162 C 308.800 246.253,310.035 249.600,310.438 249.600 C 310.637 249.600,310.800 249.845,310.800 250.144 C 310.800 250.991,315.312 255.200,316.221 255.200 C 316.539 255.200,316.800 255.341,316.800 255.512 C 316.800 256.849,329.412 257.794,334.141 256.812 L 336.400 256.343 336.400 253.326 L 336.400 250.309 335.100 250.554 C 329.281 251.651,322.414 251.190,320.693 249.586 C 320.229 249.154,319.613 248.800,319.325 248.800 C 319.036 248.800,318.800 248.646,318.800 248.458 C 318.800 248.271,318.342 247.623,317.782 247.018 C 317.222 246.414,316.660 245.398,316.532 244.760 C 316.404 244.122,316.143 243.600,315.950 243.600 C 315.757 243.600,315.600 243.240,315.600 242.800 C 315.600 242.019,315.867 242.000,326.600 242.000 C 337.333 242.000,337.600 241.981,337.600 241.200 C 337.600 240.760,337.780 240.400,338.000 240.400 C 338.240 240.400,338.400 238.800,338.400 236.400 C 338.400 234.200,338.256 232.400,338.080 232.400 C 337.904 232.400,337.535 231.311,337.260 229.980 C 336.978 228.611,336.508 227.463,336.180 227.337 C 335.861 227.215,335.600 226.932,335.600 226.710 C 335.600 226.184,332.616 223.200,332.090 223.200 C 331.868 223.200,331.596 222.965,331.485 222.679 C 331.259 222.087,327.829 221.200,325.769 221.200 C 325.016 221.200,324.400 221.020,324.400 220.800 C 324.400 220.580,323.950 220.400,323.400 220.400 C 322.850 220.400,322.400 220.580,322.400 220.800 M361.043 220.690 C 360.884 220.850,359.660 221.203,358.324 221.476 C 356.988 221.748,355.603 222.239,355.247 222.567 C 354.080 223.642,353.010 224.730,352.400 225.465 C 351.851 226.126,351.790 225.993,351.680 223.893 L 351.560 221.600 347.980 221.600 L 344.400 221.600 344.400 239.200 L 344.400 256.800 348.200 256.800 L 352.000 256.800 352.000 246.595 C 352.000 240.982,352.163 236.077,352.363 235.695 C 352.562 235.313,352.942 234.192,353.207 233.205 C 353.650 231.555,354.271 230.783,357.068 228.407 C 357.865 227.729,362.266 227.574,362.719 228.207 C 362.873 228.423,363.351 228.794,363.780 229.031 C 366.323 230.436,366.769 233.085,366.787 246.900 L 366.800 256.800 370.400 256.800 L 374.000 256.800 373.990 243.500 C 373.981 230.969,373.748 227.411,372.897 226.841 C 372.698 226.709,372.281 226.015,371.970 225.300 C 371.659 224.585,371.278 224.000,371.123 224.000 C 370.968 224.000,370.358 223.552,369.766 223.004 C 368.551 221.877,366.512 221.206,364.300 221.202 C 363.475 221.201,362.800 221.020,362.800 220.800 C 362.800 220.340,361.476 220.257,361.043 220.690 M243.672 235.300 L 243.800 249.000 244.992 250.992 C 246.867 254.126,249.317 256.033,252.474 256.817 C 260.684 258.855,271.600 255.100,271.600 250.239 C 271.600 249.924,271.779 249.607,271.999 249.533 C 272.761 249.278,273.175 243.336,273.188 232.500 L 273.200 221.600 269.431 221.600 L 265.661 221.600 265.531 234.015 C 265.436 243.045,265.270 246.510,264.925 246.723 C 264.664 246.884,264.261 247.512,264.031 248.118 C 263.801 248.725,263.294 249.338,262.906 249.481 C 262.518 249.624,262.072 249.935,261.915 250.171 C 261.495 250.801,255.112 250.737,254.900 250.100 C 254.808 249.825,254.482 249.600,254.176 249.600 C 253.869 249.600,253.303 249.105,252.918 248.500 C 252.533 247.895,252.054 247.284,251.854 247.142 C 251.236 246.705,250.852 240.632,250.825 230.900 L 250.800 221.600 247.172 221.600 L 243.544 221.600 243.672 235.300 M157.876 227.704 C 158.650 227.971,159.432 228.664,159.866 229.472 C 160.260 230.202,160.713 230.800,160.872 230.800 C 161.278 230.800,161.995 233.539,161.998 235.100 L 162.000 236.400 154.400 236.400 L 146.800 236.400 146.802 235.500 C 146.805 234.244,147.574 231.607,148.133 230.932 C 151.518 226.852,153.493 226.197,157.876 227.704 M325.200 227.234 C 326.900 227.625,327.910 228.428,330.067 231.105 C 330.434 231.560,330.860 232.937,331.013 234.166 L 331.292 236.400 323.446 236.400 L 315.600 236.400 315.600 235.000 C 315.600 234.230,315.752 233.600,315.937 233.600 C 316.122 233.600,316.484 232.895,316.742 232.034 C 317.296 230.186,319.647 227.690,321.143 227.362 C 321.724 227.234,322.380 227.070,322.600 226.997 C 323.224 226.788,323.292 226.795,325.200 227.234 M105.200 245.348 L 105.200 251.095 103.700 251.343 C 97.670 252.340,92.480 250.700,91.861 247.603 C 91.424 245.419,93.468 241.600,95.075 241.600 C 95.364 241.600,95.600 241.449,95.600 241.264 C 95.600 240.720,100.260 239.797,103.700 239.660 L 105.200 239.600 105.200 245.348 M108.400 299.200 L 108.400 316.400 116.600 316.400 L 124.800 316.400 124.800 314.200 L 124.800 312.000 118.600 312.000 L 112.400 312.000 112.400 306.400 L 112.400 300.800 118.000 300.800 L 123.600 300.800 123.600 298.800 L 123.600 296.800 118.000 296.800 L 112.400 296.800 112.400 291.400 L 112.400 286.000 118.600 286.000 L 124.800 286.000 124.800 284.000 L 124.800 282.000 116.600 282.000 L 108.400 282.000 108.400 299.200 M245.100 285.233 C 243.428 287.065,244.715 289.600,247.317 289.600 C 248.949 289.600,249.600 288.827,249.600 286.888 C 249.600 284.632,246.642 283.545,245.100 285.233 M155.720 286.500 C 155.544 286.775,155.040 287.200,154.600 287.444 C 153.827 287.874,153.800 288.304,153.800 300.244 C 153.800 313.948,153.948 314.949,156.039 315.409 C 156.678 315.549,157.200 315.836,157.200 316.047 C 157.200 316.272,158.728 316.383,160.900 316.315 L 164.600 316.200 164.722 314.296 C 164.840 312.456,163.748 310.955,163.291 312.328 C 163.199 312.603,162.337 312.800,161.229 312.800 C 157.972 312.800,157.822 312.418,157.675 303.759 L 157.551 296.400 160.775 296.400 L 164.000 296.400 164.000 294.600 L 164.000 292.800 160.800 292.800 L 157.600 292.800 157.600 289.400 C 157.600 285.974,156.823 284.776,155.720 286.500 M135.331 293.021 C 134.632 293.327,133.945 293.942,133.804 294.389 C 133.418 295.605,132.800 295.366,132.800 294.000 C 132.800 292.844,132.734 292.800,130.994 292.800 L 129.188 292.800 129.294 304.500 L 129.400 316.200 131.400 316.200 L 133.400 316.200 133.636 307.800 C 133.766 303.180,133.901 299.349,133.936 299.287 C 134.428 298.411,136.971 296.400,137.587 296.400 C 138.034 296.400,138.400 296.220,138.400 296.000 C 138.400 295.780,138.670 295.600,139.000 295.600 C 139.330 295.600,139.600 295.780,139.600 296.000 C 139.600 296.220,139.862 296.400,140.181 296.400 C 143.043 296.400,143.331 297.349,143.586 307.600 L 143.800 316.200 145.720 316.323 L 147.639 316.445 147.520 306.492 C 147.384 295.193,147.147 294.313,143.892 293.006 C 142.013 292.251,137.068 292.260,135.331 293.021 M170.812 293.033 C 169.253 293.709,166.973 296.016,166.563 297.332 C 166.414 297.809,166.091 298.328,165.846 298.485 C 165.554 298.672,165.400 300.644,165.400 304.200 C 165.400 307.756,165.554 309.728,165.846 309.915 C 166.091 310.072,166.424 310.623,166.586 311.139 C 167.003 312.475,169.776 315.130,171.090 315.451 C 171.700 315.601,172.329 315.920,172.486 316.162 C 172.991 316.937,181.723 316.734,182.529 315.929 C 183.656 314.801,183.446 312.000,182.233 312.000 C 181.702 312.000,181.203 312.192,181.124 312.428 C 180.949 312.952,174.833 313.074,174.461 312.560 C 174.317 312.362,173.525 311.857,172.700 311.437 C 171.875 311.017,171.200 310.556,171.200 310.412 C 171.200 310.269,170.861 309.787,170.446 309.342 C 170.032 308.897,169.568 307.963,169.415 307.267 L 169.136 306.000 176.568 306.000 C 182.908 306.000,184.000 305.912,184.000 305.400 C 184.000 305.070,184.180 304.800,184.400 304.800 C 185.026 304.800,184.871 300.228,184.202 298.946 C 183.874 298.316,183.604 297.525,183.602 297.189 C 183.601 296.853,183.285 296.296,182.900 295.951 C 182.515 295.607,181.939 294.942,181.620 294.474 C 180.287 292.518,173.948 291.673,170.812 293.033 M195.775 292.922 C 195.102 293.185,194.112 293.817,193.575 294.328 L 192.600 295.255 192.475 294.028 C 192.356 292.861,192.261 292.800,190.575 292.800 L 188.800 292.800 188.800 304.600 L 188.800 316.400 190.800 316.400 L 192.800 316.400 192.800 308.629 C 192.800 302.254,192.908 300.749,193.400 300.257 C 193.730 299.927,194.006 299.509,194.013 299.329 C 194.079 297.709,197.535 296.173,200.271 296.548 L 202.041 296.790 201.921 294.695 L 201.800 292.600 199.400 292.522 C 198.080 292.479,196.449 292.659,195.775 292.922 M211.240 293.022 C 210.491 293.346,209.642 293.924,209.352 294.306 C 208.876 294.934,208.824 294.895,208.813 293.900 C 208.801 292.848,208.712 292.800,206.800 292.800 L 204.800 292.800 204.800 308.600 L 204.800 324.400 206.800 324.400 L 208.800 324.400 208.800 319.610 L 208.800 314.820 209.892 315.235 C 210.492 315.463,211.116 315.864,211.278 316.125 C 211.692 316.795,218.478 316.766,218.702 316.093 C 218.793 315.822,219.092 315.600,219.367 315.600 C 220.848 315.600,224.370 310.623,224.391 308.500 C 224.396 308.005,224.580 307.600,224.800 307.600 C 225.031 307.600,225.200 306.333,225.200 304.600 C 225.200 302.867,225.031 301.600,224.800 301.600 C 224.580 301.600,224.400 301.173,224.400 300.650 C 224.400 294.744,217.067 290.493,211.240 293.022 M235.989 292.924 C 235.432 293.186,234.532 293.850,233.989 294.400 L 233.000 295.400 232.875 294.100 C 232.752 292.826,232.710 292.800,230.775 292.800 L 228.800 292.800 228.800 304.600 L 228.800 316.400 230.752 316.400 L 232.704 316.400 232.868 308.776 C 232.970 304.044,233.192 301.047,233.454 300.876 C 233.686 300.724,234.129 300.076,234.438 299.436 C 235.426 297.390,236.938 296.599,239.848 296.608 L 242.435 296.616 242.318 294.608 L 242.200 292.600 239.600 292.524 C 238.170 292.482,236.545 292.662,235.989 292.924 M257.103 292.969 C 255.464 293.554,254.034 295.003,254.013 296.100 C 254.006 296.485,253.820 296.800,253.600 296.800 C 253.380 296.800,253.200 297.610,253.200 298.600 C 253.200 299.590,253.380 300.400,253.600 300.400 C 253.820 300.400,254.000 300.741,254.000 301.159 C 254.000 301.999,256.508 304.400,257.385 304.400 C 257.692 304.400,258.181 304.631,258.471 304.914 C 258.762 305.197,259.765 305.655,260.700 305.930 C 261.635 306.206,262.400 306.605,262.400 306.816 C 262.400 307.027,262.625 307.206,262.900 307.213 C 264.991 307.269,265.991 310.642,264.200 311.600 C 263.650 311.894,263.200 312.285,263.200 312.468 C 263.200 312.944,256.496 312.880,256.200 312.400 C 256.064 312.180,255.513 312.000,254.976 312.000 C 253.760 312.000,253.537 314.794,254.664 315.921 C 255.519 316.776,264.821 316.935,265.100 316.100 C 265.192 315.825,265.537 315.600,265.867 315.600 C 270.376 315.600,270.234 305.634,265.700 303.928 C 264.985 303.659,264.400 303.300,264.400 303.131 C 264.400 302.961,263.410 302.535,262.200 302.183 C 260.990 301.831,260.000 301.376,260.000 301.172 C 260.000 300.967,259.742 300.800,259.427 300.800 C 259.112 300.800,258.476 300.269,258.013 299.619 L 257.172 298.438 258.058 297.419 C 258.546 296.859,259.272 296.400,259.672 296.400 C 260.072 296.400,260.400 296.220,260.400 296.000 C 260.400 295.500,263.885 295.466,264.067 295.965 C 264.140 296.166,265.190 296.391,266.400 296.465 L 268.600 296.600 268.600 294.807 C 268.600 293.029,268.587 293.011,267.000 292.730 C 264.360 292.262,258.703 292.399,257.103 292.969 M277.606 293.036 C 274.905 294.207,272.400 297.917,272.400 300.746 C 272.400 301.216,272.220 301.600,272.000 301.600 C 271.505 301.600,271.461 306.667,271.954 306.971 C 272.148 307.092,272.431 308.015,272.583 309.024 C 272.734 310.032,273.205 311.205,273.629 311.629 C 274.053 312.053,274.400 312.559,274.400 312.753 C 274.400 313.322,276.991 315.133,278.245 315.440 C 278.880 315.596,279.528 315.920,279.685 316.162 C 279.863 316.435,281.605 316.600,284.314 316.600 C 289.373 316.600,290.000 316.273,290.000 313.629 C 290.000 311.946,289.156 311.404,288.131 312.429 C 285.676 314.884,277.303 311.286,276.587 307.469 L 276.311 306.000 283.727 306.000 L 291.142 306.000 291.411 303.853 C 291.694 301.584,291.052 297.492,290.259 296.510 C 287.000 292.476,282.038 291.114,277.606 293.036 M245.200 304.600 L 245.200 316.400 247.200 316.400 L 249.200 316.400 249.200 304.600 L 249.200 292.800 247.200 292.800 L 245.200 292.800 245.200 304.600 M177.475 296.485 C 179.280 297.441,179.852 298.333,180.248 300.813 L 180.502 302.400 174.807 302.400 L 169.111 302.400 169.378 300.979 C 169.645 299.554,170.350 298.444,171.749 297.243 C 172.161 296.889,172.701 296.382,172.949 296.115 C 173.658 295.354,175.646 295.516,177.475 296.485 M216.000 295.992 C 216.000 296.208,216.413 296.488,216.918 296.615 C 218.243 296.948,219.938 299.268,220.241 301.166 C 220.385 302.065,220.659 302.800,220.851 302.800 C 221.043 302.800,221.200 303.430,221.200 304.200 C 221.200 304.970,221.020 305.600,220.800 305.600 C 220.580 305.600,220.400 306.056,220.400 306.613 C 220.400 309.663,217.464 312.800,214.611 312.800 C 213.615 312.800,212.799 312.665,212.797 312.500 C 212.796 312.335,212.256 311.893,211.597 311.519 C 210.939 311.144,210.400 310.559,210.400 310.219 C 210.400 309.878,210.228 309.600,210.019 309.600 C 208.552 309.600,208.506 300.249,209.968 299.200 C 210.121 299.090,210.532 298.581,210.882 298.070 C 211.987 296.453,216.000 294.824,216.000 295.992 M283.855 296.100 C 284.643 296.734,286.070 298.159,286.633 298.874 C 286.872 299.176,287.175 300.093,287.308 300.912 L 287.550 302.400 281.924 302.400 L 276.298 302.400 276.561 300.752 C 276.830 299.069,278.870 296.400,279.888 296.400 C 280.170 296.400,280.400 296.220,280.400 296.000 C 280.400 295.427,283.116 295.505,283.855 296.100 " stroke="none" fill="#040404" fill-rule="evenodd"></path><path id="path2" d="" stroke="none" fill="#602470" fill-rule="evenodd"></path><path id="path3" d="" stroke="none" fill="#602470" fill-rule="evenodd"></path><path id="path4" d="" stroke="none" fill="#602470" fill-rule="evenodd"></path></g></svg>