<?xml version="1.0" standalone="no"?>
<!DOCTYPE svg PUBLIC "-//W3C//DTD SVG 20010904//EN"
 "http://www.w3.org/TR/2001/REC-SVG-20010904/DTD/svg10.dtd">
<svg version="1.0" xmlns="http://www.w3.org/2000/svg"
 width="300.000000pt" height="300.000000pt" viewBox="0 0 300.000000 300.000000"
 preserveAspectRatio="xMidYMid meet">
<metadata>
Created by potrace 1.10, written by Peter Selinger 2001-2011
</metadata>
<g transform="translate(0.000000,300.000000) scale(0.100000,-0.100000)"
fill="#000000" stroke="none">
<path d="M1382 2414 c-200 -54 -340 -270 -303 -471 29 -164 136 -288 289 -338
84 -27 228 -18 307 20 167 80 267 269 237 446 -20 119 -78 214 -171 280 -101
72 -237 96 -359 63z m172 -26 c189 -28 326 -183 328 -370 1 -83 -8 -122 -43
-188 -38 -70 -61 -96 -130 -143 -74 -51 -130 -66 -231 -64 -70 2 -93 7 -143
32 -73 36 -154 114 -189 182 -45 91 -48 224 -7 328 27 66 115 157 186 190 92
44 124 48 229 33z"/>
<path d="M1500 2348 c0 -5 -10 -8 -21 -8 -61 0 -319 -339 -319 -418 0 -22 36
-57 68 -67 20 -6 35 5 101 74 43 45 82 81 88 81 6 0 5 -28 -3 -77 -28 -173 -7
-241 78 -248 33 -2 110 28 152 60 41 31 76 83 76 112 0 11 11 30 25 43 33 31
50 115 34 169 -16 55 -59 96 -115 110 l-46 12 6 51 c6 48 5 52 -27 82 -23 21
-43 31 -65 31 -18 0 -32 -3 -32 -7z m80 -46 l22 -18 -42 -164 c-22 -91 -44
-202 -47 -247 -6 -81 -5 -83 16 -83 30 0 75 24 120 66 32 28 40 31 45 18 21
-56 -165 -185 -223 -154 -46 24 -51 74 -22 215 10 50 35 146 56 213 20 68 34
126 31 129 -10 11 -93 -76 -147 -154 -28 -40 -48 -73 -44 -73 3 0 29 16 58 35
59 40 67 42 60 18 -3 -10 -32 -38 -65 -62 -34 -25 -81 -71 -106 -103 -25 -32
-48 -58 -52 -58 -4 0 -19 9 -33 20 l-26 21 43 73 c80 136 190 270 251 307 38
24 77 24 105 1z m130 -161 c40 -29 51 -60 47 -126 -6 -72 -26 -124 -39 -101
-5 10 -3 26 5 43 41 79 24 153 -39 179 -20 9 -47 13 -60 10 -13 -4 -24 -2 -24
3 0 25 72 19 110 -8z m-36 -25 c50 -21 58 -56 33 -136 -19 -61 -24 -67 -79
-102 -99 -64 -102 -55 -44 197 6 27 25 46 54 54 1 1 18 -5 36 -13z"/>
<path d="M104 1405 c-4 -8 -28 -85 -54 -170 l-48 -155 28 0 c22 0 29 6 36 31
9 30 11 31 72 33 62 1 63 1 70 -29 6 -23 15 -31 35 -33 15 -2 27 0 27 5 -1 4
-23 80 -49 168 -49 160 -49 160 -80 163 -21 2 -33 -2 -37 -13z m62 -136 l21
-79 -50 0 c-46 0 -49 1 -43 23 3 12 14 50 22 85 9 34 19 60 23 57 3 -4 15 -42
27 -86z"/>
<path d="M310 1250 l0 -170 25 0 25 0 0 170 0 170 -25 0 -25 0 0 -170z"/>
<path d="M923 1400 c-22 -17 -23 -25 -23 -148 0 -156 9 -174 81 -176 39 -1 44
2 47 22 3 20 0 23 -17 17 -11 -3 -29 -1 -41 5 -18 9 -20 20 -20 93 l0 82 37 0
c31 0 38 4 38 20 0 17 -6 20 -37 17 l-37 -3 -3 45 -3 44 -22 -18z"/>
<path d="M1320 1250 l0 -170 25 0 25 0 0 170 0 170 -25 0 -25 0 0 -170z"/>
<path d="M1620 1250 l0 -170 95 0 c88 0 95 1 95 20 0 18 -7 20 -70 20 l-70 0
0 150 0 150 -25 0 -25 0 0 -170z"/>
<path d="M2893 1403 c-22 -15 -23 -22 -23 -148 0 -159 8 -177 81 -179 39 -1
44 2 47 22 3 20 0 23 -17 17 -11 -3 -29 -1 -41 5 -18 9 -20 20 -20 93 l0 83
35 -4 c32 -4 35 -2 35 22 0 25 -2 26 -34 20 l-35 -6 -3 45 c-3 44 -3 44 -25
30z"/>
<path d="M466 1319 c-41 -32 -59 -75 -53 -127 9 -81 75 -132 152 -118 29 6 35
11 35 31 0 22 -2 24 -27 14 -54 -20 -113 30 -113 96 0 32 50 85 80 85 12 0 30
-5 41 -10 16 -9 19 -7 19 14 0 13 -7 27 -16 30 -34 13 -92 6 -118 -15z"/>
<path d="M678 1328 c-18 -6 -28 -17 -28 -30 0 -15 4 -18 18 -13 65 25 117 17
124 -20 5 -23 2 -25 -29 -25 -99 0 -161 -76 -111 -135 26 -30 89 -43 152 -31
l36 7 0 109 c0 105 -1 109 -26 129 -29 23 -89 27 -136 9z m112 -168 l0 -50
-39 0 c-105 0 -85 92 22 99 14 1 17 -8 17 -49z"/>
<path d="M1090 1313 c-69 -62 -56 -189 24 -227 35 -16 103 -21 122 -8 6 4 13
15 17 24 5 15 1 17 -36 12 -55 -7 -92 8 -112 46 l-16 30 86 0 c98 0 105 6 86
70 -24 80 -111 107 -171 53z m114 -35 c33 -46 22 -58 -50 -58 -63 0 -65 1 -58
23 17 58 79 77 108 35z"/>
<path d="M1830 1235 c0 -99 2 -108 24 -130 31 -31 69 -40 114 -29 57 15 71 44
74 159 l2 100 -24 0 c-25 0 -25 -1 -27 -95 -1 -84 -4 -96 -23 -112 -23 -18
-51 -17 -77 4 -9 7 -13 42 -13 109 0 99 0 99 -25 99 l-25 0 0 -105z"/>
<path d="M2133 1307 c-31 -29 -37 -41 -40 -88 -4 -45 -1 -60 19 -89 28 -42 83
-65 133 -56 29 6 35 11 35 31 0 22 -2 24 -26 15 -88 -34 -153 82 -85 151 31
30 59 36 92 19 16 -9 19 -7 19 14 0 28 -16 36 -71 36 -31 0 -47 -7 -76 -33z"/>
<path d="M2368 1325 c-55 -30 -73 -141 -33 -202 38 -57 185 -75 185 -22 0 16
-6 17 -49 12 -46 -5 -52 -3 -80 25 -17 17 -31 35 -31 41 0 7 31 11 85 11 l85
0 0 46 c0 85 -83 131 -162 89z m100 -38 c6 -6 13 -24 17 -40 l7 -27 -66 0
c-40 0 -66 4 -66 11 0 15 21 53 34 61 18 12 63 9 74 -5z"/>
<path d="M2590 1211 l0 -131 25 0 c24 0 24 2 27 91 3 87 5 93 30 112 25 19 28
19 52 3 25 -16 26 -21 26 -111 0 -95 0 -95 25 -95 l25 0 0 105 c0 99 -2 107
-25 130 -34 35 -84 34 -120 -2 l-27 -28 3 25 c3 20 -1 26 -18 28 -23 3 -23 3
-23 -127z"/>
<path d="M1466 1254 c-19 -18 -21 -45 -4 -62 39 -39 100 17 63 58 -22 24 -38
25 -59 4z"/>
<path d="M811 755 l0 -125 59 0 c48 0 60 3 60 16 0 13 -9 15 -45 12 l-45 -3 0
47 0 48 45 0 c25 0 45 5 45 10 0 6 -20 10 -45 10 l-45 0 0 45 0 45 50 0 c28 0
50 5 50 10 0 6 -28 10 -65 10 l-64 0 0 -125z"/>
<path d="M1157 843 c-11 -10 -8 -159 3 -187 7 -20 16 -26 40 -26 18 0 30 5 30
13 0 8 -10 13 -22 13 -21 -1 -23 4 -26 62 -3 61 -2 62 23 62 14 0 25 5 25 10
0 6 -11 10 -25 10 -20 0 -25 5 -25 25 0 24 -10 32 -23 18z"/>
<path d="M1011 793 c-14 -9 -21 -11 -17 -5 4 7 1 12 -8 12 -13 0 -16 -15 -16
-85 0 -69 3 -85 15 -85 12 0 15 14 15 64 0 70 12 90 52 84 21 -3 23 -8 26 -75
2 -56 6 -73 17 -73 12 0 15 14 15 60 0 69 -14 106 -44 114 -29 8 -29 8 -55
-11z"/>
<path d="M1282 803 c-7 -3 -19 -18 -27 -33 -37 -72 -1 -140 75 -140 26 0 40 4
40 13 0 9 -10 12 -30 9 -20 -3 -37 2 -50 13 -35 32 -25 45 35 45 54 0 55 0 55
29 0 46 -54 82 -98 64z m68 -44 c15 -28 10 -31 -44 -27 -46 3 -46 3 -31 26 20
28 61 29 75 1z"/>
<path d="M1462 794 c-12 -8 -22 -10 -22 -5 0 6 -4 11 -10 11 -6 0 -10 -35 -10
-85 0 -50 4 -85 10 -85 6 0 10 26 10 58 0 62 18 92 53 92 9 0 17 7 17 15 0 19
-20 19 -48 -1z"/>
<path d="M1582 794 c-12 -8 -22 -10 -22 -5 0 6 -4 11 -9 11 -6 0 -11 -52 -13
-115 -2 -87 0 -115 10 -115 8 0 12 15 12 42 0 33 3 39 12 30 15 -15 53 -16 78
-2 29 16 42 76 25 116 -12 29 -40 54 -62 54 -5 0 -19 -7 -31 -16z m68 -33 c23
-44 -1 -111 -40 -111 -22 0 -50 36 -50 65 0 54 67 88 90 46z"/>
<path d="M1763 795 c-13 -9 -23 -11 -23 -6 0 6 -4 11 -10 11 -6 0 -10 -35 -10
-85 0 -70 3 -85 15 -85 13 0 15 9 10 48 -7 60 10 96 48 100 16 2 27 8 24 15
-6 18 -30 19 -54 2z"/>
<path d="M1920 792 c-31 -25 -19 -57 31 -83 55 -28 50 -54 -9 -53 -48 1 -54
-19 -8 -24 43 -5 74 6 81 28 9 27 -7 51 -46 69 -19 9 -35 24 -37 34 -3 14 4
17 37 17 41 0 54 13 25 24 -27 10 -51 7 -74 -12z"/>
<path d="M2083 798 c-50 -24 -55 -123 -8 -154 27 -17 96 -16 102 3 3 8 -6 10
-32 6 -26 -4 -41 -1 -55 12 -35 32 -25 45 35 45 53 0 55 1 55 28 0 33 -8 45
-37 61 -26 13 -31 13 -60 -1z m75 -52 c3 -13 -5 -16 -42 -16 -52 0 -61 18 -24
44 19 13 25 14 43 2 11 -7 21 -21 23 -30z"/>
<path d="M1840 715 c0 -69 3 -85 15 -85 12 0 15 16 15 85 0 69 -3 85 -15 85
-12 0 -15 -16 -15 -85z"/>
</g>
</svg>
